<svg width="105" height="18" viewBox="0 0 105 18" fill="none" xmlns="http://www.w3.org/2000/svg">
<path d="M31.1536 2.44515V14.003H33.0599V8.9836H38.4473V14.003H40.3536V2.44515H38.4473V7.29945H33.0599V2.44515H31.1536Z" fill="black"/>
<path d="M43.0161 2.18097C42.4027 2.18097 41.922 2.62677 41.922 3.2542C41.922 3.88163 42.4027 4.32743 43.0161 4.32743C43.6294 4.32743 44.1101 3.88163 44.1101 3.2542C44.1101 2.62677 43.6294 2.18097 43.0161 2.18097ZM42.1209 5.54926V14.003H43.9112V5.54926H42.1209Z" fill="black"/>
<path d="M49.7937 5.54926C48.4013 5.54926 47.7216 6.11064 47.2906 6.82063L47.0917 5.54926H45.5004V14.003H47.2906V9.75963C47.2906 8.45524 47.8045 7.2169 49.3959 7.2169H50.1916V5.54926H49.7937Z" fill="black"/>
<path d="M54.7692 14.1021C57.3551 14.1021 59.0957 12.3684 59.0957 9.77614C59.0957 7.20038 57.3551 5.45019 54.7692 5.45019C52.1832 5.45019 50.4427 7.20038 50.4427 9.77614C50.4427 12.3684 52.1832 14.1021 54.7692 14.1021ZM54.7692 12.583C53.2607 12.583 52.2827 11.4107 52.2827 9.77614C52.2827 8.14152 53.2607 6.96923 54.7692 6.96923C56.2776 6.96923 57.2722 8.14152 57.2722 9.77614C57.2722 11.4107 56.2776 12.583 54.7692 12.583Z" fill="black"/>
<path d="M62.019 2.44515L65.5332 14.003H66.6107L69.6111 3.93116L72.6114 14.003H73.6889L77.2197 2.44515H76.2915L73.1585 12.8307L70.1084 2.44515H69.1967L66.0637 12.8307L62.9638 2.44515H62.019Z" fill="black"/>
<path d="M85.1074 13.227C84.6432 13.227 84.3614 12.9298 84.3614 12.4179V8.52128C84.3614 6.60598 83.1679 5.53275 81.0627 5.53275C79.1398 5.53275 77.88 6.45738 77.6645 7.97641H78.5099C78.7254 6.95271 79.6205 6.27575 81.0295 6.27575C82.6043 6.27575 83.516 7.10132 83.516 8.48826V9.21475H80.6648C78.5099 9.21475 77.3495 10.1394 77.3495 11.7079C77.3495 13.194 78.5264 14.1021 80.3333 14.1021C82.0407 14.1021 83.0684 13.3095 83.5492 12.2693V12.6161C83.516 13.4747 83.9304 14.003 84.925 14.003H85.4223V13.227H85.1074ZM83.516 10.6182C83.516 12.2198 82.3722 13.3756 80.383 13.3756C79.0569 13.3756 78.2115 12.6986 78.2115 11.6584C78.2115 10.5522 79.0569 9.94125 80.5985 9.94125H83.516V10.6182Z" fill="black"/>
<path d="M86.3864 2.44515V14.003H87.2318V2.44515H86.3864Z" fill="black"/>
<path d="M89.0535 2.44515V14.003H89.8989V2.44515H89.0535Z" fill="black"/>
<path d="M91.4389 9.80916C91.4389 12.3519 93.0799 14.1021 95.467 14.1021C97.307 14.1021 98.6828 12.9133 99.0641 11.2291H98.2021C97.8706 12.5335 96.7765 13.3426 95.4007 13.3426C93.6104 13.3426 92.3506 11.9886 92.3174 10.0238C92.3174 9.95776 92.3174 9.89172 92.334 9.82567H99.1801C99.1967 9.71009 99.1967 9.578 99.1967 9.47893C99.1138 6.98574 97.5722 5.53275 95.3178 5.53275C93.0302 5.53275 91.4389 7.24992 91.4389 9.80916ZM92.3837 9.11569C92.5329 7.41503 93.7927 6.27575 95.3344 6.27575C96.9754 6.27575 98.1524 7.28294 98.285 9.11569H92.3837Z" fill="black"/>
<path d="M101.168 12.0547C101.168 13.3921 101.715 14.003 103.14 14.003H104.4V13.227H103.173C102.328 13.227 102.013 12.8968 102.013 12.0382V6.40784H104.251V5.63182H102.013V3.28722H101.168V5.63182H99.5763V6.40784H101.168V12.0547Z" fill="black"/>
<path fill-rule="evenodd" clip-rule="evenodd" d="M18.7942 18L24.9384 8.99999L18.7942 0H6.14428V18H18.7942ZM6.14423 18L0 9.00001L6.14423 1.33755e-05V18ZM16.987 7.35642H14.2862L16.1829 4.5H14.749L12.4654 7.94584L10.1894 4.5H8.75558L10.6522 7.35642H7.9514V8.4597H16.987V7.35642ZM14.2331 10.6058L16.1525 13.5H14.7186L12.4654 10.0995L10.2122 13.5H8.78593L10.7053 10.6133H7.9514V9.51763H16.987V10.6058H14.2331Z" fill="black"/>
</svg>
